<?xml version="1.0" encoding="utf-8"?>
<!-- Generator: Adobe Illustrator 24.3.0, SVG Export Plug-In . SVG Version: 6.00 Build 0)  -->
<svg version="1.1" id="Layer_1" xmlns="http://www.w3.org/2000/svg" xmlns:xlink="http://www.w3.org/1999/xlink" x="0px" y="0px"
	 viewBox="0 0 145.7 151.7" style="enable-background:new 0 0 145.7 151.7;" xml:space="preserve">
<style type="text/css">
	.st0{fill:rgb(255, 255, 255);}
</style>
<g id="Layer_2_1_">
	<g id="Layer_1-2">
		<path class="st0" d="M2.5,84.2c9.4,33.4,43.6,53.7,77.1,46.8c11-2.3,22.3-1.7,33,1.7c11.4,3.6,21.7,10.2,29.7,19.1
			c7.6-22.4,2.4-47.2-13.5-64.8c4.2-12.5,4.6-26,1-38.8C120.3,14.7,86.2-5.6,52.7,1.4c-1.5,0.3-3,0.7-4.6,1.1
			C13.1,12.6-7.3,49,2.5,84.2z M33.7,72.8c-3.4-18,8.4-35.3,26.3-38.7c17.5-3.3,34.6,7.8,38.5,25.3c0.6,2.8,0.8,5.6,0.6,8.4
			C98.2,86,82.7,100.1,64.5,99.2c-12-0.6-22.7-7.6-28-18.4C35.2,78.3,34.3,75.6,33.7,72.8z"/>
		<circle class="st0" cx="66.1" cy="66.1" r="14.5"/>
	</g>
</g>
</svg>
